<svg width="136" height="156" viewBox="0 0 136 156" fill="none" xmlns="http://www.w3.org/2000/svg">
<path fill-rule="evenodd" clip-rule="evenodd" d="M67.55 0L67.525 0.0144348L67.5 0L67.475 0.0433044L0 39V104V116.99V117H0.0166502L3.75624 119.159L18.7562 110.499L18.75 110.495L67.525 82.3349L116.3 110.495L67.5249 138.655L33.7562 119.159L18.7562 127.819L67.4747 155.947L67.4998 155.99L67.5249 155.976L67.55 155.99L67.5751 155.947L135.05 116.99L135 116.904V104.087L135.05 104L135 103.971V103.959L120 95.299V95.3109L67.575 65.0433L67.55 65L67.525 65.0144L67.5 65L67.475 65.0433L15 95.3398V47.6602L67.525 17.3349L120 47.6314V77.9778L135 86.638V39.0866L135.05 39L67.575 0.0433044L67.55 0Z" fill="#38ABBE"/>
</svg>
